<!--?xml version="1.0" encoding="iso-8859-1"?-->
<!-- Generator: Adobe Illustrator 22.1.0, SVG Export Plug-In . SVG Version: 6.00 Build 0)  -->
<svg version="1.1" id="_x35_" xmlns="http://www.w3.org/2000/svg" xmlns:xlink="http://www.w3.org/1999/xlink" x="0px" y="0px" viewBox="0 0 512 512" style="width: 256px; height: 256px;" xml:space="preserve">
<style type="text/css">
	.st0{fill:#3BA9B8;}
	.st1{fill:#FFFFFF;}
	.st2{opacity:0.1;fill:#040000;}
</style>
<g>
	<path class="st0" d="M512,256c0,15-1.3,29.6-3.8,43.8c-14.2,82.5-67.8,151.4-140.9,186.8C333.7,502.9,295.9,512,256,512
		C114.6,512,0,397.4,0,256C0,114.6,114.6,0,256,0C397.4,0,512,114.6,512,256z"></path>
	<polygon class="st1" points="370.4,150.5 245,275.9 186.1,217.1 143.3,259.9 202.1,318.7 245,361.6 413.2,193.3 	"></polygon>
	<polygon class="st2" points="427.2,242.6 259,410.8 157.3,309.2 175,291.6 202.1,318.8 245,361.6 395.5,210.9 	"></polygon>
</g>
</svg>
